P1
# Created by GIMP version 2.10.6 PNM plug-in
176 16
1111111111111111111111111111111111111111111111111111111111111111111111
1111111111111111111111111111111111111111111111111111111111111111111111
1111111111111111111111111111111111111111111111111111111111111111111111
1111111111111111111111111111111111111111111111111111111111111111111111
1111111111111111111111111111111111111111111111111111111111111111111111
1111110000000011111111111001111111111100000001111111110000000111111111
1111000111111110000000000111111111000001111111100000000000111111000000
0011111111000000001111111111111111111111100011110001111111111001111111
1110001110001111111000111000111111111110000111111110001111111111111110
0011111111111000111110001111100011110001111110001111000111111111111111
1111111000111000011111111100011111111110001111000111111000111100011111
1111000001111111100011111111111111000111111111111000111110001111100011
1100011111100011110001111111110001111111111000110000011111100000011111
1111111111110001111111111111000111111110010001111111100011111111111110
0011111111111110001111100011111000111100011111100011110001111111110001
1111111110001100000111111000000111111111111111100011111111111110001111
1111001100011111111000111111111111100011111111111111111111100011111000
0011000111111000111100011111111100011111111110001001000111111111000111
1111111111110001111111111100000111111110011100011111111000000001111111
1000000000111111111111110001111111100000011111111000000000011111111111
1111111111100010010001111111110001111111111111100011111111111100000111
1111100000000001111110000000001111111000000000011111111111100011111111
1000000111111111000000000111111111111111111111100000110001111111110001
1111111111110001111111111111111000111111100000000001111111111110000111
1110001111000111111111110001111111100011000001111111111111000111111111
0001111111111000001100011111111100011111111111100011111111111111111100
0111111111110001111111111111110001111110001111000111111111100011111111
1000111100011111111111110001111111110001111111111000011100011111111100
0111111111110001110001111110001111000111111111110001111111100011110001
1111100011110001111111110001111111111000111100011111111111100011111111
1100011111111110001111000111111111000111111111100011110001111110001110
0011111111111100011111111000111000111111100011110001111111110001111111
1110001111000111111111110001111111111111111111111111000000001111111000
0000001111111000000000011111110000000111111111110000000111111100000001
1111111100000000111111111100011111111111000000001111111110000011111111
1111111111111111111111111111111111111111111111111111111111111111111111
1111111111111111111111111111111111111111111111111111111111111111111111
1111111111111111111111111111111111111111111111111111111111111111111111
1111111111111111111111111111111111111111111111111111111111111111111111
1111111111111111111111111111111111111111111111111111111111111111111111
1111111111111111