P1
# CREATOR: GIMP PNM Filter Version 1.1
84 48
0000000000000000111111111111111111111111111111111111111111111111111111
1111111111111100000000000000001111111111111111111111111111111100001111
1111111111111111111111111111000000000000000011111111111111111111111111
1110000000001111111111111111111111111111110000000000000000111111111111
1111111111111111000000000000111111111111111111111111111100000000000000
0011111111111111111111111111100000000000001111111111111111111111111111
0000000000000000111111111111111111111111111000000000000001111111111111
1111111111111100000000000000001111111111111111111111111110000000000000
0111111111111111111111111111000000000000000011111111111111111111111111
1000000000000001111111111111111111111111110000000000000000111111111111
1111111111111110000000000000011111111111111111111111111100000000000000
0011111111111111111111111111100000000000000111111111111111111111111111
0000000000000000111111111111000000011111111000000000000001111111111000
1111111111111100000000000000001111111111100000000001111110000000000000
0111111100000000011111111111000000000000000011111111100000000000001111
1000000000000001111110000000000001111111110000000000000000111111100000
0000000000111110000000000000011111000000000000001111111100000000000000
0011111100000000000000001111100000000000000111110000000000000001111111
0000000000000000111110000000000000000011111000000000000001111100000000
0000000011111100000000000000001111000000000000000001111110000000000000
0111111000000000000000011111000000000000000011100000000000000001111111
1000000000000001111111000000000000000011110000000000000000111000000000
0000001111111110000000000000011111111100000000000000011100000000000000
0011000000000000000111111111100000000000000111111111100000000000000111
0000000000000000110000000000000011111111111000000000000001111111111100
0000000000001100000000000000001000000000000001111111111110000000000000
0111111111111000000000000011000000000000000010000000000000111111111111
1000000000000001111111111110000000000000010000000000000000100000000000
0011111111111111000000000000111111111111110000000000000100000000000000
0010000000000000111111111111111000000000011111111111111100000000000001
0000000000000000100000000000001111111111111111100000011111111111111111
0000000000000100000000000000001000000000000011111111111111111111111111
1111111111111100000000000001000000000000000010000000000000111111111111
1111111111111111111111111111000000000000010000000000000000100000000000
0011111111111111111111111111111111111111110000000000000100000000000000
0010000000000000111111111111111111111111111111111111111000000000000001
0000000000000000100000000000000111111111111111111111111111111111111110
0000000000001100000000000000001100000000000000111111111111111111111111
1111111111110000000000000011000000000000000011000000000000000111111111
1111111111111111111111111000000000000001110000000000000000111000000000
0000001111111111111111111111111111111100000000000000011100000000000000
0011110000000000000001111111111111111111111111111100000000000000001111
0000000000000000111110000000000000000111111111111111111111111110000000
0000000001111100000000000000001111110000000000000000001111111111111111
1111000000000000000000111111000000000000000011111110000000000000000000
0111111111111110000000000000000000011111110000000000000000111111110000
0000000000000000000000000000000000000000000000001111111100000000000000
0011111111100000000000000000000000000000000000000000000000000111111111
0000000000000000111111111110000000000000000000000000000000000000000000
0001111111111100000000000000001111111111110000000000000000000000000000
0000000000000001111111111111000000000000000011111111111111000000000000
0000000000000000000000000001111111111111110000000000000000111111111111
1111100000000000000000000000000000000001111111111111111100000000000000
0011111111111111111111000000000000000000000000000111111111111111111111
0000000000000000111111111111111111111111100000000000000000011111111111
1111111111111100000000000000001111111111111111111111111111111111111111
1111111111111111111111111111000000000000000011111111111111111111111111
111111111111111111111111111111111111111111