P1
# CREATOR: GIMP PNM Filter Version 1.1
84 48
1111111111111111111111111111111111111111111111111111111111111111111111
1111111111111111111111111111111111111111111111111111100000111111111111
1111111111111111111111111111111111111111111111111111111111111111100000
0000011111111111111111111111111111111111111111111111111111111111111111
1111111000000000000001111111111111111111111111111111111111111111111111
1111111111111111111100000000000000011111111111111111111111111111111111
1111111111111111111111111111111111000000000000000011111111111111111111
1111111111111111111111111111111111111111111111110000000000000000111111
1111111111111111111111111111111111111111111111111111111111111100000000
0000000011111111111111111111111111111111111111111111111111111111111111
1111110000000000000000111111111111111111111111111111111111111111111111
1111111111111111111100000000000000001111111111111111111111111111111111
1111111111111111000000000111111111000000000000000011111111111100011111
1111111111111111111111111111100000000000011111110000000000000000111111
1110000000000111111111111111111111111111100000000000000011111100000000
0000000011111110000000000000011111111111111111111111100000000000000000
1111110000000000000000111111000000000000000001111111111111111111110000
0000000000000011111100000000000000001111110000000000000000001111111111
1111111100000000000000000000111111000000000000000011111100000000000000
0000011111111111111110000000000000000000011111110000000000000000111111
1000000000000000000011111111111111100000000000000000011111111100000000
0000000011111111100000000000000000011111111111110000000000000000011111
1111110000000000000000111111111110000000000000000011111111111000000000
0000000011111111111100000000000000001111111111110000000000000000011111
1111000000000000000001111111111111000000000000000011111111111110000000
0000000001111111110000000000000000111111111111110000000000000000111111
1111111100000000000000001111111100000000000000011111111111111100000000
0000000111111111111111000000000000000011111110000000000000000111111111
1111111000000000000001111111111111111000000000000000111111100000000000
0000111111111111111111000000000000111111111111111110000000000000001111
1110000000000000001111111111111111111100000000111111111111111111100000
0000000000011111100000000000000011111111111111111111111111111111111111
1111111110000000000000000111111000000000000000111111111111111111111111
1111111111111111111111100000000000000011111110000000000000000111111111
1111111111111111111111111111111111111000000000000000111111110000000000
0000011111111111111111111111111111111111111111111100000000000000001111
1111000000000000000011111111111111111111111111111111111111111111000000
0000000000111111111000000000000000011111111111111111111111111111111111
1111111000000000000000011111111110000000000000000011111111111111111111
1111111111111111111100000000000000000111111111110000000000000000011111
1111111111111111111111111111111100000000000000000011111111111110000000
0000000000011111111111111111111111111111111110000000000000000001111111
1111111100000000000000000001111111111111111111111111111110000000000000
0000001111111111111111100000000000000000000011111111111111111111111100
0000000000000000000111111111111111111100000000000000000000000011111111
1111111100000000000000000000000011111111111111111111100000000000000000
0000000000000000000000000000000000000000000011111111111111111111111110
0000000000000000000000000000000000000000000000000000000001111111111111
1111111111111110000000000000000000000000000000000000000000000000000001
1111111111111111111111111111111000000000000000000000000000000000000000
0000000000011111111111111111111111111111111111100000000000000000000000
0000000000000000000000111111111111111111111111111111111111111111000000
0000000000000000000000000000000001111111111111111111111111111111111111
1111111111110000000000000000000000000000000011111111111111111111111111
1111111111111111111111111111111100000000000000000000111111111111111111
1111111111111111111111111111111111111111111111111111111111111111111111
1111111111111111111111111111111111111111111111111111111111111111111111
111111111111111111111111111111111111111111